<svg xmlns="http://www.w3.org/2000/svg" viewBox="0 0 100 100" fill="none">
  <!-- Fondo verde -->
  <rect width="100" height="100" fill="#1F6B3F" rx="12"/>
  
  <!-- Caja principal (blanca) -->
  <rect x="25" y="30" width="50" height="45" fill="white" rx="4"/>
  
  <!-- Línea superior de la caja (tapa) -->
  <rect x="25" y="30" width="50" height="8" fill="#F7FAF8" rx="4 4 0 0"/>
  
  <!-- Líneas de detalle en la caja -->
  <line x1="35" y1="48" x2="65" y2="48" stroke="#1F6B3F" stroke-width="2" stroke-linecap="round"/>
  <line x1="35" y1="58" x2="65" y2="58" stroke="#1F6B3F" stroke-width="2" stroke-linecap="round"/>
  
  <!-- Pin de ubicación (marcador) -->
  <path d="M50 15 C50 12, 52 10, 55 10 C58 10, 60 12, 60 15 C60 18, 50 28, 50 28 C50 28, 40 18, 40 15 C40 12, 42 10, 45 10 C48 10, 50 12, 50 15 Z" fill="white"/>
  <circle cx="50" cy="15" r="4" fill="#1F6B3F"/>
</svg>

